<svg xmlns="http://www.w3.org/2000/svg" viewBox="0 0 390 844" width="390" height="844" font-family="Inter, system-ui, sans-serif">
  <rect width="390" height="844" fill="#0C0A09"/>
  <rect x="0" y="0" width="390" height="56" fill="#1C1917" fill-opacity="0.85" stroke="#292524"/>
  <text x="195" y="36" font-size="16" fill="#FAFAF9" text-anchor="middle" font-weight="600">情侣</text>

  <!-- Couple ribbon -->
  <g transform="translate(24, 80)">
    <defs>
      <radialGradient id="halo22" cx="50%" cy="50%" r="50%">
        <stop offset="0%" stop-color="#FB7185" stop-opacity="0.3"/>
        <stop offset="100%" stop-color="#FB7185" stop-opacity="0"/>
      </radialGradient>
      <radialGradient id="halo22b" cx="50%" cy="50%" r="50%">
        <stop offset="0%" stop-color="#2DD4BF" stop-opacity="0.3"/>
        <stop offset="100%" stop-color="#2DD4BF" stop-opacity="0"/>
      </radialGradient>
    </defs>
    <circle cx="290" cy="20" r="80" fill="url(#halo22)"/>
    <circle cx="50" cy="120" r="80" fill="url(#halo22b)"/>

    <rect width="342" height="100" rx="16" fill="#1C1917" stroke="#292524"/>

    <!-- Avatars -->
    <circle cx="60" cy="50" r="28" fill="#FB7185" fill-opacity="0.15"/>
    <text x="60" y="60" font-size="28" text-anchor="middle">🦊</text>
    <text x="100" y="44" font-size="16" fill="#FAFAF9" font-weight="600">Mei + Aki</text>
    <g transform="translate(100, 56)">
      <rect width="68" height="22" rx="11" fill="#FB7185" fill-opacity="0.15"/>
      <text x="34" y="16" font-size="11" fill="#FB7185" text-anchor="middle">💕 42 天</text>
    </g>
    <text x="100" y="92" font-size="12" fill="#D6D3D1">🪙 211 · 双方都在努力</text>

    <g transform="translate(244, 32)">
      <rect width="80" height="36" rx="8" fill="#FB7185"/>
      <text x="40" y="23" font-size="13" fill="#FFFFFF" text-anchor="middle" font-weight="600">鼓励 →</text>
    </g>
  </g>

  <text x="24" y="216" font-size="11" fill="#D6D3D1" font-weight="600">TA 今天</text>

  <!-- ta's today 3 modules -->
  <g transform="translate(24, 232)">
    <rect width="167" height="88" rx="12" fill="#1C1917" stroke="#292524"/>
    <circle cx="32" cy="32" r="16" fill="#FB7185" fill-opacity="0.15"/>
    <text x="32" y="38" font-size="18" text-anchor="middle">📊</text>
    <text x="58" y="28" font-size="13" fill="#FAFAF9" font-weight="600">体重</text>
    <text x="58" y="46" font-size="11" fill="#A8A29E">2 小时前</text>
    <text x="14" y="74" font-size="12" fill="#FB7185" font-weight="500">✓ 65.5 公斤</text>
  </g>
  <g transform="translate(199, 232)">
    <rect width="167" height="88" rx="12" fill="#1C1917" stroke="#292524"/>
    <circle cx="32" cy="32" r="16" fill="#FB7185" fill-opacity="0.15"/>
    <text x="32" y="38" font-size="18" text-anchor="middle">🍱</text>
    <text x="58" y="28" font-size="13" fill="#FAFAF9" font-weight="600">饮食</text>
    <text x="58" y="46" font-size="11" fill="#A8A29E">1 小时前</text>
    <text x="14" y="74" font-size="12" fill="#FB7185" font-weight="500">✓ 820 千卡</text>
  </g>
  <g transform="translate(24, 328)">
    <rect width="167" height="88" rx="12" fill="#1C1917" stroke="#292524"/>
    <circle cx="32" cy="32" r="16" fill="#2DD4BF" fill-opacity="0.15"/>
    <text x="32" y="38" font-size="18" text-anchor="middle">🏃</text>
    <text x="58" y="28" font-size="13" fill="#FAFAF9" font-weight="600">运动</text>
    <text x="58" y="46" font-size="11" fill="#A8A29E">刚刚</text>
    <text x="14" y="74" font-size="12" fill="#FB7185" font-weight="500">✓ 30 分钟</text>
  </g>

  <!-- Streak card -->
  <g transform="translate(24, 432)">
    <rect width="342" height="100" rx="16" fill="#1C1917" stroke="#292524"/>
    <circle cx="40" cy="50" r="20" fill="#FB7185" fill-opacity="0.15"/>
    <text x="40" y="58" font-size="22" text-anchor="middle">🔥</text>
    <text x="76" y="42" font-size="14" fill="#FAFAF9" font-weight="600">双方连续</text>
    <text x="76" y="68" font-size="28" fill="#FAFAF9" font-weight="700">7 天</text>
    <text x="322" y="68" font-size="13" fill="#D6D3D1" text-anchor="end">+10 虚拟币</text>
  </g>

  <text x="24" y="568" font-size="11" fill="#D6D3D1" font-weight="600">操作</text>
  <g transform="translate(24, 584)">
    <rect width="167" height="48" rx="12" fill="#2DD4BF"/>
    <text x="83" y="30" font-size="14" fill="#0C0A09" text-anchor="middle" font-weight="600">发鼓励表情</text>
  </g>
  <g transform="translate(199, 584)">
    <rect width="167" height="48" rx="12" fill="#1C1917" stroke="#444040"/>
    <text x="83" y="30" font-size="14" fill="#FAFAF9" text-anchor="middle" font-weight="500">更多</text>
  </g>
</svg>